<?xml version="1.0" encoding="utf-8"?>
<!-- Generator: Adobe Illustrator 25.2.1, SVG Export Plug-In . SVG Version: 6.00 Build 0)  -->
<svg version="1.1" id="Layer_1" xmlns="http://www.w3.org/2000/svg" xmlns:xlink="http://www.w3.org/1999/xlink" x="0px" y="0px"
	 viewBox="0 0 90 90" style="enable-background:new 0 0 90 90;" xml:space="preserve">
<style type="text/css">
	.st0{fill:#7C7C7C;}
	.st1{fill:#FFFFFF;}
</style>
<circle class="st0" cx="45" cy="45" r="36"/>
<g>
	<g>
		<g>
			<polygon class="st1" points="51,45.2 63.4,53 63.4,37.1 			"/>
		</g>
	</g>
	<g>
		<g>
			<g>
				<polygon class="st1" points="26.8,37.1 26.8,53 39.1,45.2 				"/>
			</g>
		</g>
		<g>
			<g>
				<path class="st1" d="M61.1,32.4h-32c-1.1,0-2,0.9-2.2,1.9l18.2,12l18.2-12C63.1,33.3,62.2,32.4,61.1,32.4z"/>
			</g>
		</g>
		<g>
			<g>
				<path class="st1" d="M48.9,46.6l-3.2,2.1c-0.2,0.1-0.4,0.2-0.6,0.2c-0.2,0-0.4-0.1-0.6-0.2l-3.2-2.1l-14.4,9.1
					c0.2,1.1,1.1,1.9,2.2,1.9h32c1.1,0,2-0.8,2.2-1.9L48.9,46.6z"/>
			</g>
		</g>
	</g>
</g>
</svg>
