<?xml version="1.0" encoding="utf-8"?>
<!-- Generator: Adobe Illustrator 25.2.1, SVG Export Plug-In . SVG Version: 6.00 Build 0)  -->
<svg version="1.1" id="Layer_1" xmlns="http://www.w3.org/2000/svg" xmlns:xlink="http://www.w3.org/1999/xlink" x="0px" y="0px"
	 viewBox="0 0 90 90" style="enable-background:new 0 0 90 90;" xml:space="preserve">
<style type="text/css">
	.st0{fill:url(#SVGID_1_);}
	.st1{fill:url(#SVGID_2_);}
	.st2{fill:#FFFFFF;stroke:#000000;stroke-miterlimit:10;}
</style>
<linearGradient id="SVGID_1_" gradientUnits="userSpaceOnUse" x1="9" y1="45" x2="81" y2="45">
	<stop  offset="0" style="stop-color:#FFFC00"/>
	<stop  offset="1" style="stop-color:#FFE600"/>
</linearGradient>
<circle class="st0" cx="45" cy="45" r="36"/>
<linearGradient id="SVGID_2_" gradientUnits="userSpaceOnUse" x1="59.5266" y1="37.2074" x2="-40.2657" y2="90.7397">
	<stop  offset="0" style="stop-color:#FFE600;stop-opacity:0"/>
	<stop  offset="1" style="stop-color:#FFCE00"/>
</linearGradient>
<circle class="st1" cx="45" cy="45" r="36"/>
<path class="st2" d="M45.3,64.1c-0.1,0-0.2,0-0.3,0h0c-0.1,0-0.1,0-0.2,0c-2.4,0-4-1.1-5.5-2.2c-1-0.7-2-1.4-3.2-1.6
	c-0.6-0.1-1.1-0.1-1.7-0.1c-1,0-1.7,0.2-2.3,0.3c-0.3,0.1-0.6,0.1-0.9,0.1c-0.2,0-0.5-0.1-0.6-0.4c-0.1-0.3-0.2-0.6-0.2-0.9
	c-0.2-0.8-0.3-1.3-0.6-1.3c-3.8-0.6-4.9-1.4-5.2-2c0-0.1-0.1-0.2-0.1-0.2c0-0.2,0.1-0.4,0.4-0.4c5.9-1,8.5-7,8.6-7.2c0,0,0,0,0,0
	c0.4-0.7,0.4-1.4,0.2-1.9c-0.4-1-1.7-1.4-2.6-1.6c-0.2-0.1-0.4-0.1-0.6-0.2c-1.7-0.7-1.9-1.4-1.8-1.8c0.1-0.6,0.9-1,1.6-1
	c0.2,0,0.3,0,0.5,0.1c0.8,0.4,1.5,0.6,2.1,0.6c0.8,0,1.2-0.4,1.3-0.4c0-0.4,0-0.8-0.1-1.2c-0.2-2.8-0.4-6.2,0.5-8.2
	c2.6-5.9,8.2-6.4,9.9-6.4c0,0,0.7,0,0.7,0l0.1,0c1.7,0,7.3,0.5,9.9,6.4c0.9,2,0.7,5.4,0.5,8.2l0,0.1c0,0.4,0,0.8-0.1,1.1
	c0,0,0.4,0.4,1.1,0.4h0c0.6,0,1.2-0.2,2-0.5c0.2-0.1,0.5-0.1,0.6-0.1c0.2,0,0.5,0,0.7,0.1l0,0c0.6,0.2,1,0.6,1,1.1
	c0,0.4-0.3,1-1.8,1.6c-0.2,0.1-0.4,0.1-0.6,0.2c-0.9,0.3-2.2,0.7-2.6,1.6c-0.2,0.5-0.2,1.2,0.2,1.9c0,0,0,0,0,0
	c0.1,0.3,2.7,6.3,8.6,7.2c0.2,0,0.4,0.2,0.4,0.4c0,0.1,0,0.2-0.1,0.2c-0.2,0.6-1.3,1.4-5.2,2c-0.3,0-0.4,0.5-0.6,1.3
	c-0.1,0.3-0.1,0.6-0.2,0.9c-0.1,0.3-0.3,0.4-0.5,0.4h0c-0.2,0-0.5,0-0.9-0.1c-0.6-0.1-1.4-0.2-2.3-0.2c-0.5,0-1.1,0-1.7,0.1
	c-1.1,0.2-2.1,0.9-3.2,1.6C49.2,63,47.7,64.1,45.3,64.1z"/>
</svg>
