<?xml version="1.0" encoding="utf-8"?>
<!-- Generator: Adobe Illustrator 25.2.1, SVG Export Plug-In . SVG Version: 6.00 Build 0)  -->
<svg version="1.1" id="Layer_1" xmlns="http://www.w3.org/2000/svg" xmlns:xlink="http://www.w3.org/1999/xlink" x="0px" y="0px"
	 viewBox="0 0 90 90" style="enable-background:new 0 0 90 90;" xml:space="preserve">
<style type="text/css">
	.st0{fill:#55ACEE;}
	.st1{fill:#FFFFFF;}
</style>
<circle class="st0" cx="45" cy="45" r="36"/>
<g>
	<path class="st1" d="M63.5,33.6c-1.4,0.6-2.8,1-4.4,1.2c1.6-0.9,2.8-2.4,3.3-4.2c-1.5,0.9-3.1,1.5-4.8,1.8
		c-1.4-1.5-3.3-2.4-5.5-2.4c-4.2,0-7.6,3.4-7.6,7.6c0,0.6,0.1,1.2,0.2,1.7C38.4,39,32.8,36,29.1,31.4c-0.7,1.1-1,2.4-1,3.8
		c0,2.6,1.3,4.9,3.4,6.3c-1.2,0-2.4-0.4-3.4-0.9c0,0,0,0.1,0,0.1c0,3.7,2.6,6.7,6.1,7.4c-0.6,0.2-1.3,0.3-2,0.3c-0.5,0-1,0-1.4-0.1
		c1,3,3.8,5.2,7.1,5.3c-2.6,2-5.9,3.2-9.4,3.2c-0.6,0-1.2,0-1.8-0.1c3.3,2.1,7.3,3.4,11.6,3.4c13.9,0,21.5-11.5,21.5-21.5
		c0-0.3,0-0.7,0-1C61.2,36.4,62.4,35.1,63.5,33.6L63.5,33.6z"/>
</g>
</svg>
