<?xml version="1.0" encoding="utf-8"?>
<!-- Generator: Adobe Illustrator 25.2.1, SVG Export Plug-In . SVG Version: 6.00 Build 0)  -->
<svg version="1.1" id="Layer_1" xmlns="http://www.w3.org/2000/svg" xmlns:xlink="http://www.w3.org/1999/xlink" x="0px" y="0px"
	 viewBox="0 0 90 90" style="enable-background:new 0 0 90 90;" xml:space="preserve">
<style type="text/css">
	.st0{fill:#1BD741;}
	.st1{fill:#FFFFFF;}
</style>
<g id="Groupe_26" transform="translate(-63 -332)">
	<g transform="matrix(1, 0, 0, 1, 63, 332)">
		<circle id="Ellipse_3-2" class="st0" cx="45" cy="45" r="36"/>
	</g>
	<g id="Groupe_28" transform="translate(8.373 8.352)">
		<path id="Tracé_15" class="st1" d="M80.2,388.1l2.7-9.7c-5.4-9.3-2.3-21.2,6.9-26.6s21.2-2.3,26.6,6.9c5.4,9.3,2.3,21.2-6.9,26.6
			c-6,3.5-13.3,3.6-19.4,0.2L80.2,388.1z M90.7,382l0.6,0.4c7.6,4.6,17.6,2.2,22.2-5.4c4.6-7.6,2.2-17.6-5.4-22.2
			c-7.6-4.6-17.6-2.2-22.2,5.4c-3.2,5.3-3.1,11.9,0.2,17.1l0.4,0.6l-1.6,5.6L90.7,382z"/>
		<path id="Tracé_16" class="st1" d="M94.2,359.5l-1.3-0.1c-0.4,0-0.8,0.1-1.1,0.4c-0.9,0.7-1.6,1.8-1.9,2.9c-0.4,2,0.2,4.4,2,6.9
			c2.7,3.9,6.6,6.7,11,8c1.5,0.5,3.2,0.3,4.6-0.6c0.9-0.6,1.6-1.5,1.8-2.6l0.2-0.9c0.1-0.3-0.1-0.6-0.4-0.7l-4.3-2
			c-0.3-0.1-0.6,0-0.8,0.2l-1.7,2.2c-0.1,0.2-0.3,0.2-0.5,0.2c-3-1.1-5.6-3.2-7.1-6.1c-0.1-0.2-0.1-0.4,0.1-0.5l1.6-1.9
			c0.2-0.2,0.2-0.5,0.1-0.7l-1.8-4.3C94.7,359.7,94.4,359.6,94.2,359.5z"/>
	</g>
</g>
</svg>
