<?xml version="1.0" encoding="utf-8"?>
<!-- Generator: Adobe Illustrator 25.2.1, SVG Export Plug-In . SVG Version: 6.00 Build 0)  -->
<svg version="1.1" id="Layer_1" xmlns="http://www.w3.org/2000/svg" xmlns:xlink="http://www.w3.org/1999/xlink" x="0px" y="0px"
	 viewBox="0 0 90 90" style="enable-background:new 0 0 90 90;" xml:space="preserve">
<style type="text/css">
	.st0{fill:url(#SVGID_1_);}
	.st1{fill:#FFFFFF;}
</style>
<linearGradient id="SVGID_1_" gradientUnits="userSpaceOnUse" x1="20.4806" y1="18.6424" x2="69.5194" y2="71.3576">
	<stop  offset="0" style="stop-color:#FFDD55"/>
	<stop  offset="0.5" style="stop-color:#FF543E"/>
	<stop  offset="1" style="stop-color:#C837AB"/>
</linearGradient>
<circle class="st0" cx="45" cy="45" r="36"/>
<path class="st1" d="M45,25c-8.2,0-16-0.7-19,6.9c-1.2,3.2-1,7.2-1,13.1c0,5.1-0.2,10,1,13.1C29,65.7,36.9,65,45,65
	c7.8,0,15.9,0.8,19-6.9c1.2-3.2,1-7.2,1-13.1c0-7.8,0.4-12.9-3.4-16.6C57.8,24.5,52.6,25,45,25L45,25z M43.2,28.6
	c17.1,0,19.3-1.9,18.1,24.5c-0.4,9.3-7.5,8.3-16.3,8.3c-15.9,0-16.4-0.5-16.4-16.4C28.6,28.9,29.9,28.6,43.2,28.6L43.2,28.6z
	 M55.7,31.9c-1.3,0-2.4,1.1-2.4,2.4s1.1,2.4,2.4,2.4s2.4-1.1,2.4-2.4S57,31.9,55.7,31.9z M45,34.7c-5.7,0-10.3,4.6-10.3,10.3
	S39.3,55.3,45,55.3S55.3,50.7,55.3,45S50.7,34.7,45,34.7L45,34.7z M45,38.3c8.8,0,8.8,13.3,0,13.3C36.2,51.7,36.2,38.3,45,38.3z"/>
</svg>
