<?xml version="1.0" encoding="utf-8"?>
<!-- Generator: Adobe Illustrator 25.2.1, SVG Export Plug-In . SVG Version: 6.00 Build 0)  -->
<svg version="1.1" id="Layer_1" xmlns="http://www.w3.org/2000/svg" xmlns:xlink="http://www.w3.org/1999/xlink" x="0px" y="0px"
	 viewBox="0 0 90 90" style="enable-background:new 0 0 90 90;" xml:space="preserve">
<style type="text/css">
	.st0{fill:#007AB9;}
	.st1{fill:#FFFFFF;}
</style>
<circle class="st0" cx="45" cy="45" r="36"/>
<g>
	<path class="st1" d="M64.9,49.3V64h-8.5V50.3c0-3.4-1.2-5.8-4.3-5.8c-2.4,0-3.8,1.6-4.4,3.1c-0.2,0.5-0.3,1.3-0.3,2.1V64h-8.5
		c0,0,0.1-23.2,0-25.6h8.5V42c0,0,0,0.1-0.1,0.1h0.1V42c1.1-1.7,3.2-4.2,7.7-4.2C60.7,37.8,64.9,41.4,64.9,49.3L64.9,49.3z M29.9,26
		c-2.9,0-4.8,1.9-4.8,4.4c0,2.5,1.9,4.4,4.7,4.4h0.1c3,0,4.8-2,4.8-4.4C34.7,27.9,32.9,26,29.9,26L29.9,26z M25.6,64h8.5V38.4h-8.5
		V64z"/>
</g>
</svg>
