<?xml version="1.0" encoding="utf-8"?>
<!-- Generator: Adobe Illustrator 25.2.1, SVG Export Plug-In . SVG Version: 6.00 Build 0)  -->
<svg version="1.1" id="Layer_1" xmlns="http://www.w3.org/2000/svg" xmlns:xlink="http://www.w3.org/1999/xlink" x="0px" y="0px"
	 viewBox="0 0 90 90" style="enable-background:new 0 0 90 90;" xml:space="preserve">
<style type="text/css">
	.st0{fill:#2196F3;}
</style>
<g>
	<path class="st0" d="M45,14c17.1,0,31,13.9,31,31S62.1,76,45,76S14,62.1,14,45S27.9,14,45,14 M45,9C25.1,9,9,25.1,9,45
		s16.1,36,36,36s36-16.1,36-36S64.9,9,45,9L45,9z"/>
</g>
<path class="st0" d="M21.6,43.3c0,6.8,3.4,12.9,8.7,16.9v8.3l8-4.4c2.1,0.6,4.4,0.9,6.7,0.9c12.9,0,23.4-9.7,23.4-21.7
	c0-12-10.5-21.7-23.4-21.7S21.6,31.3,21.6,43.3L21.6,43.3z M42.5,37.2l6.1,6.4l11.5-6.4L47.3,50.8l-6-6.4l-11.6,6.4L42.5,37.2z"/>
</svg>
