<?xml version="1.0" encoding="utf-8"?>
<!-- Generator: Adobe Illustrator 25.1.0, SVG Export Plug-In . SVG Version: 6.00 Build 0)  -->
<svg version="1.1" id="Layer_1" xmlns="http://www.w3.org/2000/svg" xmlns:xlink="http://www.w3.org/1999/xlink" x="0px" y="0px"
	 viewBox="0 0 90 90" style="enable-background:new 0 0 90 90;" xml:space="preserve">
<style type="text/css">
	.st0{fill:#1372E5;}
	.st1{fill:#FFFFFF;}
</style>
<g id="Groupe_26" transform="translate(-63 -332)">
	<g transform="matrix(1, 0, 0, 1, 63, 332)">
		<circle id="Ellipse_3-2_1_" class="st0" cx="45" cy="45" r="36"/>
	</g>
	<path class="st1" d="M108,362.8c-9.6,0-17.4,6.3-17.4,14.2c0,3.3,1.4,6.4,3.8,8.8c0.1,0.6,0.1,1.2-0.1,1.8
		c-0.3,1.3-1.2,2.1-1.6,2.4c0.8,0.2,2.1,0.5,3.8,0.3c1.3-0.2,2.3-0.5,3.1-0.9c2.5,1.1,5.4,1.8,8.4,1.8c9.6,0,17.4-6.3,17.4-14.2
		S117.6,362.8,108,362.8z"/>
</g>
</svg>
